<svg width="770" height="811" viewBox="0 0 770 811" fill="none" xmlns="http://www.w3.org/2000/svg">
<path d="M393.318 65.605L532.228 65.615C555.988 65.623 582.348 66.206 605.888 65.5415L605.753 603.446C574.063 602.346 537.883 603.401 505.858 603.301L434.753 603.211C421.863 603.201 406.063 602.891 393.323 603.391L393.348 218.467L393.313 112.784L393.378 82.703C393.388 79.945 393.548 70.597 393.178 68.2325L393.318 65.605ZM399.433 72.0405L399.413 597.556L590.953 597.586L599.723 597.606L599.768 71.867L478.088 71.873C456.838 71.8815 432.663 72.4885 411.603 71.885C407.598 71.9475 403.423 72.075 399.433 72.0405Z" fill="#1C1917"/>
<path d="M528.883 115.675L569.753 115.717C570.063 130.262 569.853 145.456 569.858 160.05L569.883 374.333V450.351C569.878 463.851 569.788 478.131 569.768 491.441C569.713 537.906 543.393 570.466 494.748 568.531C456.703 567.021 432.243 542.011 428.143 504.336C426.118 485.696 427.263 466.256 427.123 447.621C426.858 405.261 426.858 362.896 427.118 320.533L427.048 182.155C427.043 161.95 426.253 135.424 427.248 115.788C440.563 115.46 455.013 115.713 468.408 115.697L468.448 378.624L468.398 451.951C468.398 462.421 468.348 472.911 468.503 483.396C468.793 502.686 474.648 526.101 498.253 526.591C516.693 526.976 526.503 510.691 528.063 494.301C529.453 479.746 528.868 464.276 528.853 449.601V373.023L528.883 115.675Z" fill="#1C1917"/>
<path d="M30.3289 102.173C49.5444 101.749 70.1504 102.128 89.4739 102.125L204.091 102.12L308.302 102.115C321.875 102.134 335.529 102.248 349.101 101.975C350.888 101.939 353.887 102.245 355.284 103.486L354.844 104.195C352.697 105.115 350.823 104.771 348.439 104.66C348.968 128.164 348.513 152.545 348.588 176.14L348.633 383.271C348.709 386.953 348.488 390.956 348.354 394.666L30.3759 394.691L30.3289 102.173ZM36.3944 388.546L239.109 388.506L315.137 388.431C318.833 388.421 340.557 389.086 342.048 388.026L342.189 387.567L342.25 204.253C342.3 173.213 341.43 139.367 342.283 108.571L141.787 108.568C107.157 108.57 70.8614 109.12 36.3784 108.476C37.1484 127.709 36.7289 147.805 36.7574 167.167L36.6794 276.55L36.7609 349.528C36.7654 361.335 37.2654 377.169 36.3944 388.546Z" fill="#1C1917"/>
<path d="M83.8883 149.663L175.966 149.647C210.447 149.631 252.359 146.127 281.446 167.284C294.997 177.068 304.026 191.908 306.486 208.44C310.657 235.509 300.902 262.217 276.726 276.44C264.43 283.675 252.907 286.362 238.962 288.42C225.529 290.291 207.837 289.77 193.903 289.762L129.877 289.763L129.829 355.671L83.9144 355.596C83.3569 328.436 83.8443 299.886 83.8433 272.586L83.8883 149.663ZM129.816 253.708L187.963 253.742C208.444 253.764 237.89 256.113 254.526 242.653C260.875 236.577 264.279 231.2 264.474 222.049C265.12 191.752 235.072 186.233 211.032 186.021L129.849 186.009C129.875 208.254 130.239 231.532 129.816 253.708Z" fill="#1C1917"/>
<path d="M30.407 445.696L348.611 445.661C349.003 468.621 348.452 492.186 348.5 515.171L348.58 645.646L348.471 695.466C348.522 702.871 349.137 717.751 348.301 724.296C347.204 725.216 347.262 724.871 345.333 724.761L30.304 724.876C30.7365 692.196 30.363 658.586 30.3475 625.846L30.407 445.696ZM36.5155 718.856L262.518 718.976L316.884 718.931C321.738 718.941 338.192 719.341 341.946 718.631C342.541 699.036 342.048 678.571 342.129 658.856L342.183 519.311C342.144 498.271 341.608 472.591 342.315 451.786L149.032 451.761L76.158 451.791C63.827 451.796 48.746 452.246 36.6055 451.681C37.3595 510.036 36.8085 569.771 36.705 628.196L36.7664 687.501C36.7739 696.466 37.1585 710.126 36.5155 718.856Z" fill="#1C1917"/>
<path d="M177.856 480.436C178.483 480.356 179.111 480.291 179.741 480.241C240.093 475.166 302.868 510.556 307.337 575.371C312.086 644.256 264.061 685.991 198.776 691.296C198.644 691.316 198.512 691.331 198.38 691.351C166.737 693.246 131.959 684.791 107.437 664.811C86.5529 648.086 73.3169 623.631 70.7359 596.996C68.0214 570.266 74.7404 541.911 92.1709 521.136C115.232 493.646 143.605 483.831 177.856 480.436ZM193.959 654.576C209.435 653.136 221.866 650.686 235.13 641.951C257.797 627.021 266.891 603.051 264.007 576.491C259.463 534.651 224.821 515.231 185.468 516.366C142.353 518.486 111.754 544.631 113.573 589.871C114.273 607.276 121.794 623.961 134.823 635.666C152.567 651.111 171.389 654.601 193.959 654.576Z" fill="#1C1917"/>
<path d="M636.348 388.381C680.558 389.281 725.543 387.946 769.783 388.491L769.798 724.991C766.488 724.761 762.113 724.861 758.713 724.846C715.373 725.141 669.593 725.396 626.313 724.801L626.413 388.591L636.348 388.381ZM632.343 718.911L763.293 718.876C763.788 680.176 763.433 640.861 763.428 602.121L763.413 394.671L632.413 394.721L632.343 718.911Z" fill="#1C1917"/>
<path d="M678.318 426.631L718.313 426.611L718.328 603.886L718.343 661.311C718.348 669.501 718.798 683.286 718.198 691.081C705.053 690.901 691.423 691.116 678.238 691.141C677.588 637.286 678.263 582.191 678.243 528.226L678.258 459.121C678.278 448.541 677.833 437.021 678.318 426.631Z" fill="#1C1917"/>
<path d="M372.825 65.6445C372.96 46.062 372.915 26.375 372.681 6.7905C372.656 4.619 372.365 1.0475 374.508 0L375.383 0.567001C376.083 2.9735 375.768 15.114 375.778 18.435L375.773 65.6715L393.318 65.605L393.178 68.2325C387.378 68.4205 381.568 68.439 375.763 68.2885L375.713 742.041C381.698 742.021 412.053 740.536 415.428 743.821C412.653 745.186 380.983 744.641 375.643 744.601C375.758 752.631 376.563 807.701 374.843 810.361L373.788 810.481C372.253 808.581 372.924 793.086 372.915 789.551L372.882 744.591C367.189 744.596 341.38 745.786 338.084 743.446C337.91 743.321 337.805 743.121 337.666 742.961C340.445 741.431 367.943 742.021 372.893 742.031L372.798 421.726L340.187 421.811C335.242 421.816 326.9 422.051 322.257 421.676C325.713 420.576 331.274 421.701 336.77 420.276C333.655 419.151 326.706 420.121 322.601 419.171C336.552 418.291 358.516 419.006 372.8 419.046L372.828 68.4815C363.114 68.0245 338.498 69.6295 331.213 67.1935L331.194 66.3045L330.502 66.657C334.05 65.116 366.659 65.661 372.825 65.6445Z" fill="#1C1917"/>
<path d="M6.14799 418.986C89.488 419.941 173.936 418.776 257.394 419.121C272.359 419.031 287.326 419.026 302.291 419.096C306.778 419.106 318.77 418.806 322.602 419.171C326.706 420.121 333.655 419.151 336.771 420.276C331.275 421.701 325.713 420.576 322.257 421.676C314.796 422.391 298.111 421.686 289.922 421.726L213.745 421.771L7.041 421.851C4.626 421.831 2.1775 421.586 0 420.511L0.0779953 419.821C2.3385 418.736 3.6335 418.966 6.14799 418.986Z" fill="#1C1917"/>
</svg>
