<svg width="770" height="811" viewBox="0 0 770 811" fill="none" xmlns="http://www.w3.org/2000/svg">
<path fill-rule="evenodd" clip-rule="evenodd" d="M605.753 603.446C574.063 602.346 537.883 603.401 505.858 603.301L434.753 603.211C421.863 603.201 406.063 602.891 393.323 603.391L393.348 218.467L393.312 112.783L393.378 82.7031C393.388 79.9451 393.548 70.5969 393.178 68.2324L393.318 65.6055L532.228 65.6152C555.987 65.6232 582.348 66.2065 605.888 65.542L605.753 603.446Z" fill="#C4004B"/>
<path d="M348.611 445.661C349.003 468.621 348.452 492.186 348.5 515.171L348.58 645.646L348.471 695.466C348.522 702.871 349.138 717.751 348.302 724.296C347.205 725.216 347.262 724.871 345.333 724.761L30.3037 724.876C30.7362 692.196 30.3632 658.586 30.3477 625.846L30.4072 445.696L348.611 445.661Z" fill="#C4004B"/>
<path fill-rule="evenodd" clip-rule="evenodd" d="M30.3291 102.173C49.5445 101.75 70.1503 102.127 89.4736 102.124L204.092 102.119L308.302 102.116C321.875 102.135 335.529 102.247 349.101 101.975C350.888 101.939 353.887 102.246 355.284 103.487L354.844 104.195C352.697 105.115 350.823 104.771 348.438 104.66C348.968 128.164 348.513 152.545 348.588 176.14L348.634 383.271C348.71 386.953 348.488 390.956 348.354 394.665L30.376 394.691L30.3291 102.173Z" fill="#C4004B"/>
<path d="M528.883 115.675L569.753 115.717C570.063 130.263 569.853 145.456 569.858 160.05L569.883 374.334V450.351C569.878 463.851 569.788 478.131 569.768 491.441C569.713 537.906 543.393 570.466 494.748 568.531C456.703 567.021 432.243 542.011 428.143 504.336C426.118 485.696 427.263 466.256 427.123 447.621C426.858 405.261 426.858 362.896 427.118 320.534L427.048 182.156C427.043 161.951 426.253 135.425 427.248 115.788C440.563 115.46 455.013 115.714 468.408 115.698L468.448 378.624L468.398 451.951C468.398 462.421 468.348 472.911 468.503 483.396C468.793 502.686 474.648 526.101 498.253 526.591C516.693 526.976 526.503 510.691 528.063 494.301C529.453 479.746 528.868 464.276 528.853 449.601V373.023L528.883 115.675Z" fill="#F5F0E8"/>
<path d="M83.8883 149.663L175.966 149.647C210.447 149.631 252.359 146.127 281.446 167.284C294.997 177.068 304.026 191.908 306.486 208.44C310.657 235.509 300.902 262.217 276.726 276.44C264.43 283.675 252.907 286.362 238.962 288.42C225.529 290.291 207.837 289.77 193.903 289.762L129.877 289.763L129.829 355.671L83.9144 355.596C83.3569 328.436 83.8443 299.886 83.8433 272.586L83.8883 149.663ZM129.816 253.708L187.963 253.742C208.444 253.764 237.89 256.113 254.526 242.653C260.875 236.577 264.279 231.2 264.474 222.049C265.12 191.752 235.072 186.233 211.032 186.021L129.849 186.009C129.875 208.254 130.239 231.532 129.816 253.708Z" fill="#F5F0E8"/>
<path fill-rule="evenodd" clip-rule="evenodd" d="M636.348 388.381C680.558 389.281 725.543 387.947 769.783 388.492L769.798 724.992C766.488 724.762 762.113 724.861 758.713 724.846C715.373 725.141 669.592 725.396 626.312 724.801L626.413 388.591L636.348 388.381Z" fill="#C4004B"/>
<path d="M678.318 426.631L718.313 426.611L718.328 603.886L718.343 661.311C718.348 669.501 718.798 683.286 718.198 691.081C705.053 690.901 691.423 691.116 678.238 691.141C677.588 637.286 678.263 582.191 678.243 528.226L678.258 459.121C678.278 448.541 677.833 437.021 678.318 426.631Z" fill="#F5F0E8"/>
<path d="M372.825 65.6445C372.96 46.062 372.915 26.375 372.681 6.7905C372.656 4.619 372.365 1.0475 374.508 0L375.383 0.567001C376.083 2.9735 375.768 15.114 375.778 18.435L375.773 65.6715L393.318 65.605L393.178 68.2325C387.378 68.4205 381.568 68.439 375.763 68.2885L375.713 742.041C381.698 742.021 412.053 740.536 415.428 743.821C412.653 745.186 380.983 744.641 375.643 744.601C375.758 752.631 376.563 807.701 374.843 810.361L373.788 810.481C372.253 808.581 372.924 793.086 372.915 789.551L372.882 744.591C367.189 744.596 341.38 745.786 338.084 743.446C337.91 743.321 337.805 743.121 337.666 742.961C340.445 741.431 367.943 742.021 372.893 742.031L372.798 421.726L340.187 421.811C335.242 421.816 326.9 422.051 322.257 421.676C325.713 420.576 331.274 421.701 336.77 420.276C333.655 419.151 326.706 420.121 322.601 419.171C336.552 418.291 358.516 419.006 372.8 419.046L372.828 68.4815C363.114 68.0245 338.498 69.6295 331.213 67.1935L331.194 66.3045L330.502 66.657C334.05 65.116 366.659 65.661 372.825 65.6445Z" fill="#C4004B"/>
<path d="M6.14799 418.986C89.488 419.941 173.936 418.776 257.394 419.121C272.359 419.031 287.326 419.026 302.291 419.096C306.778 419.106 318.77 418.806 322.602 419.171C326.706 420.121 333.655 419.151 336.771 420.276C331.275 421.701 325.713 420.576 322.257 421.676C314.796 422.391 298.111 421.686 289.922 421.726L213.745 421.771L7.041 421.851C4.626 421.831 2.1775 421.586 0 420.511L0.0779953 419.821C2.3385 418.736 3.6335 418.966 6.14799 418.986Z" fill="#C4004B"/>
<path d="M177.856 480.436C178.483 480.356 179.111 480.291 179.741 480.241C240.093 475.166 302.868 510.556 307.337 575.371C312.086 644.256 264.061 685.991 198.776 691.296C198.644 691.316 198.512 691.331 198.38 691.351C166.737 693.246 131.959 684.791 107.437 664.811C86.5529 648.086 73.3169 623.631 70.7359 596.996C68.0214 570.266 74.7404 541.911 92.1709 521.136C115.232 493.646 143.605 483.831 177.856 480.436ZM193.959 654.576C209.435 653.136 221.866 650.686 235.13 641.951C257.797 627.021 266.891 603.051 264.007 576.491C259.463 534.651 224.821 515.231 185.468 516.366C142.353 518.486 111.754 544.631 113.573 589.871C114.273 607.276 121.794 623.961 134.823 635.666C152.567 651.111 171.389 654.601 193.959 654.576Z" fill="#F5F0E8"/>
</svg>
